<svg height="512pt" viewBox="-51 0 511 512" width="512pt" xmlns="http://www.w3.org/2000/svg"><path d="m82.191406 326.492188c-39.609375-39.605469-39.609375-104.050782 0-143.660157l123.332032-123.328125c39.605468-39.609375 104.050781-39.609375 143.65625 0 39.609374 39.605469 39.609374 104.050782 0 143.65625l-123.332032 123.332032c-39.605468 39.605468-104.050781 39.605468-143.65625 0zm0 0" fill="#feda9b"/><path d="m319.457031 89.222656c-23.253906-23.253906-60.957031-23.253906-84.210937 0l-123.332032 123.332032c-23.253906 23.257812-23.253906 60.960937 0 84.214843 23.253907 23.253907 60.957032 23.253907 84.210938 0l123.332031-123.332031c23.257813-23.253906 23.257813-60.957031 0-84.214844zm0 0" fill="#fff"/><path d="m292.628906 138.824219c0 12.574219-10.195312 22.765625-22.769531 22.765625s-22.769531-10.191406-22.769531-22.765625c0-12.578125 10.195312-22.769531 22.769531-22.769531s22.769531 10.191406 22.769531 22.769531zm0 0" fill="#ff5d5d"/><path d="m316.167969 491.753906c-2.640625 0-5.207031 1.070313-7.070313 2.929688-1.859375 1.859375-2.929687 4.4375-2.929687 7.070312 0 2.640625 1.070312 5.210938 2.929687 7.066406 1.863282 1.871094 4.441406 2.933594 7.070313 2.933594 2.632812 0 5.210937-1.0625 7.070312-2.933594 1.859375-1.855468 2.929688-4.4375 2.929688-7.066406 0-2.632812-1.070313-5.199218-2.929688-7.070312-1.859375-1.859375-4.4375-2.929688-7.070312-2.929688zm0 0"/><path d="m326.527344 82.152344c-13.132813-13.132813-30.597656-20.371094-49.175782-20.371094-18.578124 0-36.042968 7.238281-49.179687 20.371094l-58.160156 58.164062c-3.90625 3.902344-3.90625 10.234375 0 14.140625 3.90625 3.902344 10.234375 3.902344 14.144531 0l58.160156-58.160156c9.355469-9.359375 21.800782-14.515625 35.035156-14.515625 13.234376 0 25.675782 5.15625 35.035157 14.515625 9.359375 9.355469 14.511719 21.800781 14.511719 35.035156s-5.152344 25.675781-14.511719 35.035157l-123.332031 123.332031c-9.660157 9.660156-22.347657 14.492187-35.035157 14.488281-12.6875 0-25.378906-4.832031-35.035156-14.488281-19.320313-19.320313-19.320313-50.753907 0-70.070313l8.371094-8.371094c3.902343-3.90625 3.902343-10.238281 0-14.144531-3.90625-3.902343-10.238281-3.902343-14.144531 0l-8.371094 8.371094c-27.113282 27.117187-27.113282 71.238281 0 98.355469 13.558594 13.558594 31.371094 20.339844 49.179687 20.339844 17.808594 0 35.621094-6.78125 49.179688-20.339844l123.328125-123.332032c13.136718-13.136718 20.371094-30.601562 20.371094-49.175781 0-18.578125-7.234376-36.042969-20.371094-49.179687zm0 0"/><path d="m148.800781 185.667969c2.632813 0 5.203125-1.070313 7.070313-2.929688 1.859375-1.859375 2.929687-4.4375 2.929687-7.070312 0-2.628907-1.070312-5.210938-2.929687-7.070313s-4.4375-2.929687-7.070313-2.929687c-2.640625 0-5.207031 1.070312-7.066406 2.929687-1.871094 1.859375-2.933594 4.441406-2.933594 7.070313 0 2.632812 1.0625 5.210937 2.933594 7.070312 1.859375 1.859375 4.4375 2.929688 7.066406 2.929688zm0 0"/><path d="m302.628906 138.824219c0-18.070313-14.699218-32.769531-32.769531-32.769531s-32.769531 14.699218-32.769531 32.769531c0 18.066406 14.699218 32.765625 32.769531 32.765625s32.769531-14.699219 32.769531-32.765625zm-45.539062 0c0-7.042969 5.730468-12.769531 12.769531-12.769531 7.042969 0 12.769531 5.726562 12.769531 12.769531 0 7.039062-5.726562 12.765625-12.769531 12.765625-7.039063 0-12.769531-5.726563-12.769531-12.765625zm0 0"/><path d="m206.492188 157.839844c-2.628907 0-5.210938 1.070312-7.070313 2.929687s-2.929687 4.4375-2.929687 7.070313c0 2.628906 1.070312 5.210937 2.929687 7.066406 1.859375 1.863281 4.441406 2.929688 7.070313 2.929688 2.628906 0 5.210937-1.066407 7.070312-2.929688 1.859375-1.855469 2.929688-4.4375 2.929688-7.066406 0-2.632813-1.070313-5.210938-2.929688-7.070313s-4.441406-2.929687-7.070312-2.929687zm0 0"/><path d="m214.519531 222.226562c1.863281 1.859376 4.441407 2.929688 7.070313 2.929688 2.632812 0 5.210937-1.070312 7.070312-2.929688 1.859375-1.859374 2.929688-4.4375 2.929688-7.070312 0-2.628906-1.070313-5.207031-2.929688-7.078125-1.859375-1.859375-4.4375-2.921875-7.070312-2.921875-2.628906 0-5.207032 1.0625-7.070313 2.921875-1.859375 1.871094-2.929687 4.449219-2.929687 7.078125 0 2.632812 1.070312 5.210938 2.929687 7.070312zm0 0"/><path d="m151.191406 261.996094c-1.867187 1.859375-2.929687 4.441406-2.929687 7.070312s1.0625 5.210938 2.929687 7.070313c1.859375 1.859375 4.433594 2.929687 7.070313 2.929687 2.628906 0 5.199219-1.070312 7.070312-2.929687 1.859375-1.859375 2.929688-4.441407 2.929688-7.070313s-1.070313-5.210937-2.929688-7.070312-4.441406-2.929688-7.070312-2.929688c-2.636719 0-5.210938 1.070313-7.070313 2.929688zm0 0"/><path d="m175.851562 226.738281c1.859376-1.859375 2.929688-4.441406 2.929688-7.082031 0-2.628906-1.070312-5.210938-2.929688-7.070312-1.859374-1.859376-4.441406-2.917969-7.070312-2.917969s-5.210938 1.058593-7.066406 2.917969c-1.863282 1.859374-2.933594 4.441406-2.933594 7.070312 0 2.640625 1.070312 5.210938 2.933594 7.082031 1.855468 1.859375 4.4375 2.917969 7.066406 2.917969s5.210938-1.058594 7.070312-2.917969zm0 0"/><path d="m408.683594 119.132812c0-5.523437-4.480469-10-10-10h-11.988282c-3.632812-18.132812-11.714843-35.007812-23.691406-49.3125l7.90625-7.90625c3.90625-3.90625 3.90625-10.238281 0-14.144531-3.90625-3.902343-10.234375-3.902343-14.140625 0l-7.90625 7.90625c-14.304687-11.976562-31.179687-20.054687-49.3125-23.6875v-11.988281c0-5.523438-4.476562-10-10-10-5.523437 0-10 4.476562-10 10v9.824219c-.734375-.011719-1.464843-.027344-2.199219-.027344-13.53125 0-26.683593 2.390625-38.984374 6.957031l-3.890626-13.359375c-1.542968-5.304687-7.09375-8.355469-12.394531-6.808593-5.304687 1.542968-8.351562 7.09375-6.808593 12.394531l4.816406 16.542969c-7.792969 4.667968-15.058594 10.324218-21.640625 16.910156l-11.324219 11.324218-11.273438-11.273437c-3.90625-3.902344-10.234374-3.902344-14.140624 0-3.90625 3.90625-3.90625 10.238281 0 14.144531l11.269531 11.273438-29.125 29.125-10.632813-10.632813c-3.90625-3.902343-10.234375-3.902343-14.140625 0-3.90625 3.90625-3.90625 10.238281 0 14.144531l10.628907 10.628907-29.125 29.128906-11.273438-11.273437c-3.90625-3.902344-10.234375-3.902344-14.140625 0-3.90625 3.90625-3.90625 10.238281 0 14.144531l11.269531 11.269531-11.324218 11.328125c-6.644532 6.644531-12.265626 13.925781-16.882813 21.648437l-16.566406-4.824218c-5.296875-1.542969-10.855469 1.503906-12.398438 6.808594-1.542969 5.304687 1.503907 10.851562 6.808594 12.394531l13.394531 3.898437c-4.910156 13.238282-7.230468 27.226563-6.957031 41.175782h-9.832031c-5.519532 0-9.996094 4.476562-9.996094 10 0 5.523437 4.476562 10 9.996094 10h12.027344c3.578124 17.765624 11.503906 34.820312 23.773437 49.445312l-43.597656 43.589844c-15.726563 15.726562-24.386719 36.636718-24.386719 58.875 0 22.242187 8.660156 43.148437 24.386719 58.875 16.230469 16.230468 37.554687 24.347656 58.875 24.347656 21.320312 0 42.640625-8.117188 58.875-24.347656 37.351562-37.351563 98.246093-40.03125 138.632812-6.105469 4.226563 3.554687 10.535157 3.007813 14.085938-1.222656 3.554687-4.230469 3.007812-10.535157-1.222657-14.089844-23.421874-19.675781-53.222656-29.816406-83.890624-28.570313-30.863282 1.261719-59.894532 13.992188-81.75 35.84375-12.332032 12.335938-28.53125 18.503907-44.730469 18.5-16.199219 0-32.402344-6.167968-44.730469-18.5-24.667969-24.664062-24.667969-64.796874 0-89.460937l43.617188-43.621094c14.5625 12.140625 31.515624 19.988281 49.171874 23.546875v12.023438c0 5.519531 4.476563 10 10 10 5.519532 0 9.996094-4.480469 9.996094-10v-9.832032c.734375.015626 1.46875.027344 2.203125.027344 13.214844 0 26.433594-2.332031 38.972657-6.984375l3.898437 13.394531c1.273437 4.371094 5.265625 7.207032 9.597656 7.207032.925781 0 1.867188-.128906 2.800781-.398438 5.300782-1.542968 8.347657-7.09375 6.804688-12.398437l-4.820312-16.566407c7.722656-4.617187 15.003906-10.238281 21.644531-16.882812l11.328125-11.324219 11.269531 11.269531c1.953125 1.953126 4.515625 2.929688 7.074219 2.929688s5.117187-.976562 7.070312-2.929688c3.902344-3.90625 3.902344-10.238281 0-14.140624l-11.273437-11.273438 29.128906-29.125 10.628906 10.628906c1.953125 1.953125 4.511719 2.929688 7.070313 2.929688s5.117187-.976563 7.070312-2.929688c3.90625-3.90625 3.90625-10.238281 0-14.140625l-10.628906-10.632812 29.125-29.125 11.273438 11.269531c1.953124 1.953125 4.511718 2.929688 7.070312 2.929688s5.117188-.976563 7.070312-2.929688c3.90625-3.902344 3.90625-10.234375 0-14.140625l-11.269531-11.273437 11.324219-11.324219c6.582031-6.585938 12.242188-13.851563 16.910156-21.640625l16.539063 4.816406c.933593.269531 1.875.398438 2.800781.398438 4.332031 0 8.324219-2.839844 9.597656-7.207032 1.542969-5.304687-1.503906-10.851562-6.808594-12.394531l-13.363281-3.890625c4.570313-12.300781 6.960938-25.453125 6.960938-38.984375 0-.734375-.015625-1.464844-.027344-2.199219h9.824219c5.523437 0 10-4.476562 10-9.996094zm-66.574219 76.957032-123.332031 123.332031c-17.265625 17.265625-40.265625 26.773437-64.757813 26.773437-24.492187 0-47.492187-9.507812-64.757812-26.773437-17.269531-17.265625-26.777344-40.265625-26.777344-64.757813 0-24.492187 9.511719-47.492187 26.777344-64.757812l123.332031-123.332031c17.265625-17.269531 40.265625-26.777344 64.757812-26.777344 24.492188 0 47.492188 9.511719 64.757813 26.777344s26.777344 40.265625 26.777344 64.757812c0 24.492188-9.511719 47.492188-26.777344 64.757813zm0 0"/></svg>